<svg xmlns="http://www.w3.org/2000/svg" width="261.162" height="83.81" viewBox="0 0 261.162 83.81">
  <defs>
    <style>
      .cls-1, .cls-2 {
        fill: #fff;
      }

      .cls-1 {
        fill-rule: evenodd;
      }

      .cls-2 {
        stroke: #fff;
        stroke-width: 5px;
      }
    </style>
  </defs>
  <g id="Group_3299" data-name="Group 3299" transform="translate(-306 -530)">
    <g id="Group" transform="translate(306 530)">
      <path id="Combined-Shape" class="cls-1" d="M60.6.059,60.732,0V38.774l-.134.059v.031l-6.181,2.68-1.237.543V41.7L44.8,38.02l8.376-3.7V26.738l-17.123,7.45-9.093-3.953L53.18,18.816V11.244L9.053,30.491,0,26.541,60.6,0Z" transform="translate(0 0)"/>
      <path id="Combined-Shape-2" data-name="Combined-Shape" class="cls-1" d="M53.023,177.77v-7.6L0,146.985l9.26-4.053L60.6,165.367v8.118l-.023-.01v7.594l.023.01V189l-.023-.01v7.325l.023.01v7.925L.338,177.942v-7.937L53.023,193.02V185.7l-52.684-23v-7.937Z" transform="translate(0 -120.444)"/>
    </g>
    <path id="LEAD" class="cls-2" d="M704,344.3V310h4.291v30.727h27.176V344.3Zm40.278,0V310h34.3v3.573H748.566v11.433h28.583v3.573H748.566v12.148h30.012V344.3Zm76.606-7.86H793.7l-4.292,7.86H784.4L804.43,310h5.723l20.031,34.3h-5.008Zm-2.185-3.625-11.407-19.982-11.407,19.982Zm45.968,7.867q2.837,0,4.8-.157a12,12,0,0,0,3.239-.638,4.282,4.282,0,0,0,1.966-1.4,6.127,6.127,0,0,0,1.016-2.429,20.566,20.566,0,0,0,.38-3.716q.056-2.2.056-5.271t-.056-5.271a20.565,20.565,0,0,0-.38-3.716,6.127,6.127,0,0,0-1.016-2.429,4.283,4.283,0,0,0-1.966-1.4,11.972,11.972,0,0,0-3.228-.638q-1.955-.157-4.814-.157H843.243v27.219ZM839,344.3V310h25.662a40.229,40.229,0,0,1,6.61.458,14.635,14.635,0,0,1,4.437,1.4,7.353,7.353,0,0,1,2.7,2.345,9.751,9.751,0,0,1,1.382,3.316,22.834,22.834,0,0,1,.513,4.31q.078,2.4.078,5.326t-.078,5.326a22.834,22.834,0,0,1-.513,4.31A9.751,9.751,0,0,1,878.4,340.1a7.353,7.353,0,0,1-2.7,2.345,14.635,14.635,0,0,1-4.437,1.4,40.229,40.229,0,0,1-6.61.458Z" transform="translate(-315.713 244.859)"/>
  </g>
</svg>
